<svg xmlns="http://www.w3.org/2000/svg" viewBox="0 0 512 512" role="img" aria-labelledby="title desc">
  <title id="title">Leggau Portal</title>
  <desc id="desc">Marca circular do portal Leggau com destaque laranja e azul.</desc>
  <defs>
    <linearGradient id="bg" x1="0%" y1="0%" x2="100%" y2="100%">
      <stop offset="0%" stop-color="#fff8da" />
      <stop offset="100%" stop-color="#d8f0ff" />
    </linearGradient>
    <linearGradient id="mark" x1="0%" y1="0%" x2="100%" y2="100%">
      <stop offset="0%" stop-color="#f28b30" />
      <stop offset="100%" stop-color="#3e8ed0" />
    </linearGradient>
  </defs>
  <rect width="512" height="512" rx="120" fill="url(#bg)" />
  <circle cx="256" cy="256" r="176" fill="#fffaf0" stroke="#e5d8b8" stroke-width="18" />
  <path
    d="M172 304c0-72 42-120 108-120 38 0 73 14 97 42l-38 34c-17-18-39-28-62-28-39 0-62 25-62 72 0 46 22 72 60 72 27 0 49-9 69-29l33 34c-25 29-61 43-105 43-67 0-100-44-100-120Z"
    fill="url(#mark)"
  />
  <circle cx="343" cy="187" r="23" fill="#16324f" />
</svg>
